<svg width="63" height="63" viewBox="0 0 63 63" fill="none" xmlns="http://www.w3.org/2000/svg">
<g id="inventory">
<mask id="mask0_28_59" style="mask-type:alpha" maskUnits="userSpaceOnUse" x="0" y="0" width="63" height="63">
<rect id="Bounding box" width="63" height="63" fill="#D9D9D9"/>
</mask>
<g mask="url(#mask0_28_59)">
<path id="inventory_2" d="M40.6875 52.3031L29.5313 41.1469L33.2063 37.4719L40.6875 44.9531L55.5188 30.1219L59.1938 33.7969L40.6875 52.3031ZM55.125 26.25H49.875V13.125H44.625V21H18.375V13.125H13.125V49.875H28.875V55.125H13.125C11.6813 55.125 10.4453 54.6109 9.41719 53.5828C8.38906 52.5547 7.875 51.3187 7.875 49.875V13.125C7.875 11.6812 8.38906 10.4453 9.41719 9.41719C10.4453 8.38906 11.6813 7.875 13.125 7.875H24.0844C24.5656 6.34375 25.5063 5.08594 26.9063 4.10156C28.3063 3.11719 29.8375 2.625 31.5 2.625C33.25 2.625 34.8141 3.11719 36.1922 4.10156C37.5703 5.08594 38.5 6.34375 38.9813 7.875H49.875C51.3188 7.875 52.5547 8.38906 53.5828 9.41719C54.6109 10.4453 55.125 11.6812 55.125 13.125V26.25ZM31.5 13.125C32.2438 13.125 32.8672 12.8734 33.3703 12.3703C33.8734 11.8672 34.125 11.2437 34.125 10.5C34.125 9.75625 33.8734 9.13281 33.3703 8.62969C32.8672 8.12656 32.2438 7.875 31.5 7.875C30.7563 7.875 30.1328 8.12656 29.6297 8.62969C29.1266 9.13281 28.875 9.75625 28.875 10.5C28.875 11.2437 29.1266 11.8672 29.6297 12.3703C30.1328 12.8734 30.7563 13.125 31.5 13.125Z" fill="#1C1B1F"/>
</g>
</g>
</svg>
