<svg width="63" height="63" viewBox="0 0 63 63" fill="none" xmlns="http://www.w3.org/2000/svg">
<path d="M17.0625 52.5C13.0812 52.5 9.67969 51.1219 6.85781 48.3656C4.03594 45.6094 2.625 42.2406 2.625 38.2594C2.625 34.8469 3.65312 31.8062 5.70937 29.1375C7.76562 26.4687 10.4562 24.7625 13.7812 24.0187C14.875 19.9937 17.0625 16.7344 20.3438 14.2406C23.625 11.7469 27.3437 10.5 31.5 10.5C36.6187 10.5 40.9609 12.2828 44.5266 15.8484C48.0922 19.4141 49.875 23.7562 49.875 28.875C52.8937 29.225 55.3984 30.5266 57.3891 32.7797C59.3797 35.0328 60.375 37.6687 60.375 40.6875C60.375 43.9688 59.2266 46.7578 56.9297 49.0547C54.6328 51.3516 51.8437 52.5 48.5625 52.5H34.125C32.6812 52.5 31.4453 51.9859 30.4172 50.9578C29.3891 49.9297 28.875 48.6937 28.875 47.25V33.7312L24.675 37.8L21 34.125L31.5 23.625L42 34.125L38.325 37.8L34.125 33.7312V47.25H48.5625C50.4 47.25 51.9531 46.6156 53.2219 45.3469C54.4906 44.0781 55.125 42.525 55.125 40.6875C55.125 38.85 54.4906 37.2969 53.2219 36.0281C51.9531 34.7594 50.4 34.125 48.5625 34.125H44.625V28.875C44.625 25.2437 43.3453 22.1484 40.7859 19.5891C38.2266 17.0297 35.1312 15.75 31.5 15.75C27.8687 15.75 24.7734 17.0297 22.2141 19.5891C19.6547 22.1484 18.375 25.2437 18.375 28.875H17.0625C14.525 28.875 12.3594 29.7719 10.5656 31.5656C8.77187 33.3594 7.875 35.525 7.875 38.0625C7.875 40.6 8.77187 42.7656 10.5656 44.5594C12.3594 46.3531 14.525 47.25 17.0625 47.25H23.625V52.5H17.0625Z" fill="#1E1E1E"/>
</svg>
