<svg width="63" height="63" viewBox="0 0 63 63" fill="none" xmlns="http://www.w3.org/2000/svg">
<path d="M44.625 57.75C40.9937 57.75 37.8984 56.4703 35.3391 53.9109C32.7797 51.3516 31.5 48.2562 31.5 44.625C31.5 40.9937 32.7797 37.8984 35.3391 35.3391C37.8984 32.7797 40.9937 31.5 44.625 31.5C48.2562 31.5 51.3516 32.7797 53.9109 35.3391C56.4703 37.8984 57.75 40.9937 57.75 44.625C57.75 48.2562 56.4703 51.3516 53.9109 53.9109C51.3516 56.4703 48.2562 57.75 44.625 57.75ZM49.0219 50.8594L50.8594 49.0219L45.9375 44.1V36.75H43.3125V45.15L49.0219 50.8594ZM13.125 55.125C11.6812 55.125 10.4453 54.6109 9.41719 53.5828C8.38906 52.5547 7.875 51.3187 7.875 49.875V13.125C7.875 11.6812 8.38906 10.4453 9.41719 9.41719C10.4453 8.38906 11.6812 7.875 13.125 7.875H24.0844C24.5656 6.34375 25.5062 5.08594 26.9062 4.10156C28.3062 3.11719 29.8375 2.625 31.5 2.625C33.25 2.625 34.8141 3.11719 36.1922 4.10156C37.5703 5.08594 38.5 6.34375 38.9812 7.875H49.875C51.3187 7.875 52.5547 8.38906 53.5828 9.41719C54.6109 10.4453 55.125 11.6812 55.125 13.125V29.5312C54.3375 28.9625 53.5062 28.4812 52.6312 28.0875C51.7562 27.6937 50.8375 27.3437 49.875 27.0375V13.125H44.625V21H18.375V13.125H13.125V49.875H27.0375C27.3438 50.8375 27.6937 51.7562 28.0875 52.6312C28.4812 53.5062 28.9625 54.3375 29.5312 55.125H13.125ZM31.5 13.125C32.2437 13.125 32.8672 12.8734 33.3703 12.3703C33.8734 11.8672 34.125 11.2437 34.125 10.5C34.125 9.75625 33.8734 9.13281 33.3703 8.62969C32.8672 8.12656 32.2437 7.875 31.5 7.875C30.7562 7.875 30.1328 8.12656 29.6297 8.62969C29.1266 9.13281 28.875 9.75625 28.875 10.5C28.875 11.2437 29.1266 11.8672 29.6297 12.3703C30.1328 12.8734 30.7562 13.125 31.5 13.125Z" fill="#1E1E1E"/>
</svg>
