<svg width="62" height="62" viewBox="0 0 62 62" fill="none" xmlns="http://www.w3.org/2000/svg">
<g id="person_24dp_FILL0_wght400_GRAD0_opsz24 1">
<path id="Vector" d="M30.9999 31C28.1583 31 25.7256 29.9882 23.702 27.9646C21.6784 25.941 20.6666 23.5083 20.6666 20.6667C20.6666 17.825 21.6784 15.3924 23.702 13.3688C25.7256 11.3451 28.1583 10.3333 30.9999 10.3333C33.8416 10.3333 36.2742 11.3451 38.2978 13.3688C40.3214 15.3924 41.3333 17.825 41.3333 20.6667C41.3333 23.5083 40.3214 25.941 38.2978 27.9646C36.2742 29.9882 33.8416 31 30.9999 31ZM10.3333 51.6667V44.4333C10.3333 42.9694 10.71 41.624 11.4635 40.3969C12.2169 39.1698 13.218 38.2333 14.4666 37.5875C17.136 36.2528 19.8485 35.2517 22.6041 34.5844C25.3596 33.917 28.1583 33.5833 30.9999 33.5833C33.8416 33.5833 36.6402 33.917 39.3958 34.5844C42.1513 35.2517 44.8638 36.2528 47.5332 37.5875C48.7819 38.2333 49.7829 39.1698 50.5364 40.3969C51.2898 41.624 51.6666 42.9694 51.6666 44.4333V51.6667H10.3333ZM15.4999 46.5H46.4999V44.4333C46.4999 43.9597 46.3815 43.5292 46.1447 43.1417C45.9079 42.7542 45.5958 42.4528 45.2083 42.2375C42.8833 41.075 40.5367 40.2031 38.1687 39.6219C35.8006 39.0406 33.411 38.75 30.9999 38.75C28.5888 38.75 26.1992 39.0406 23.8312 39.6219C21.4631 40.2031 19.1166 41.075 16.7916 42.2375C16.4041 42.4528 16.0919 42.7542 15.8551 43.1417C15.6183 43.5292 15.4999 43.9597 15.4999 44.4333V46.5ZM30.9999 25.8333C32.4208 25.8333 33.6371 25.3274 34.6489 24.3156C35.6607 23.3038 36.1666 22.0875 36.1666 20.6667C36.1666 19.2458 35.6607 18.0295 34.6489 17.0177C33.6371 16.0059 32.4208 15.5 30.9999 15.5C29.5791 15.5 28.3628 16.0059 27.351 17.0177C26.3392 18.0295 25.8333 19.2458 25.8333 20.6667C25.8333 22.0875 26.3392 23.3038 27.351 24.3156C28.3628 25.3274 29.5791 25.8333 30.9999 25.8333Z" fill="white"/>
</g>
</svg>
