<svg width="63" height="63" viewBox="0 0 63 63" fill="none" xmlns="http://www.w3.org/2000/svg">
<rect width="63" height="63" fill="white"/>
<path d="M15.75 57.75V46.4625C13.2563 44.1875 11.3203 41.5297 9.94219 38.4891C8.56406 35.4484 7.875 32.2437 7.875 28.875C7.875 22.3125 10.1719 16.7344 14.7656 12.1406C19.3594 7.54688 24.9375 5.25 31.5 5.25C36.9688 5.25 41.8141 6.85781 46.0359 10.0734C50.2578 13.2891 53.0031 17.4781 54.2719 22.6406L57.6844 36.0937C57.9031 36.925 57.75 37.6797 57.225 38.3578C56.7 39.0359 56 39.375 55.125 39.375H49.875V47.25C49.875 48.6937 49.3609 49.9297 48.3328 50.9578C47.3047 51.9859 46.0688 52.5 44.625 52.5H39.375V57.75H34.125V47.25H44.625V34.125H51.7125L49.2188 23.9531C48.2125 19.9719 46.0688 16.7344 42.7875 14.2406C39.5063 11.7469 35.7438 10.5 31.5 10.5C26.425 10.5 22.0938 12.2719 18.5063 15.8156C14.9188 19.3594 13.125 23.6687 13.125 28.7437C13.125 31.3687 13.6609 33.8625 14.7328 36.225C15.8047 38.5875 17.325 40.6875 19.2938 42.525L21 44.1V57.75H15.75ZM31.5 42C32.2438 42 32.8672 41.7484 33.3703 41.2453C33.8734 40.7422 34.125 40.1187 34.125 39.375C34.125 38.6312 33.8734 38.0078 33.3703 37.5047C32.8672 37.0016 32.2438 36.75 31.5 36.75C30.7563 36.75 30.1328 37.0016 29.6297 37.5047C29.1266 38.0078 28.875 38.6312 28.875 39.375C28.875 40.1187 29.1266 40.7422 29.6297 41.2453C30.1328 41.7484 30.7563 42 31.5 42ZM29.5313 33.6H33.5344C33.5344 32.5062 33.6766 31.6203 33.9609 30.9422C34.2453 30.2641 34.825 29.4437 35.7 28.4812C36.4875 27.6062 37.2531 26.7203 37.9969 25.8234C38.7406 24.9266 39.1125 23.7562 39.1125 22.3125C39.1125 20.475 38.4016 18.9219 36.9797 17.6531C35.5578 16.3844 33.7969 15.75 31.6969 15.75C29.9469 15.75 28.3609 16.2531 26.9391 17.2594C25.5172 18.2656 24.5219 19.5781 23.9531 21.1969L27.5625 22.7062C27.8688 21.7437 28.4047 20.9672 29.1703 20.3766C29.9359 19.7859 30.7781 19.4906 31.6969 19.4906C32.6594 19.4906 33.4578 19.7531 34.0922 20.2781C34.7266 20.8031 35.0438 21.4812 35.0438 22.3125C35.0438 23.2312 34.7703 24.0516 34.2234 24.7734C33.6766 25.4953 33.0313 26.2281 32.2875 26.9719C31.4125 27.8906 30.7344 28.8094 30.2531 29.7281C29.7719 30.6469 29.5313 31.9375 29.5313 33.6Z" fill="#1E1E1E"/>
</svg>
